<?xml version="1.0" encoding="UTF-8"?>
<svg width="240px" height="65px" viewBox="0 0 240 65" version="1.1" xmlns="http://www.w3.org/2000/svg" xmlns:xlink="http://www.w3.org/1999/xlink">
    <!-- Generator: Sketch 53.2 (72643) - https://sketchapp.com -->
    <title>Logo_horizontal</title>
    <desc>Created with Sketch.</desc>
    <defs>
        <polygon id="path-1" points="0.396126952 0.47693199 180.628422 0.47693199 180.628422 1.73275164 0.396126952 1.73275164"></polygon>
        <polygon id="path-3" points="0.396126952 0.47693199 180.628422 0.47693199 180.628422 1.73275164 0.396126952 1.73275164"></polygon>
        <polygon id="path-5" points="0 0.446797179 51.4113243 0.446797179 51.4113243 28.4885755 0 28.4885755"></polygon>
        <polygon id="path-7" points="0 0.351775315 51.4113243 0.351775315 51.4113243 51.7607302 0 51.7607302"></polygon>
    </defs>
    <g id="Symbols" stroke="none" stroke-width="1" fill="none" fill-rule="evenodd">
        <g id="Header-SBS" transform="translate(0.000000, -29.000000)">
            <g id="Logo_horizontal" transform="translate(0.000000, 29.000000)">
                <g>
                    <g id="Group-3" transform="translate(60.148111, 28.203388)">
                        <mask id="mask-2" fill="white">
                            <use xlink:href="#path-1"></use>
                        </mask>
                        <g id="Clip-2"></g>
                        <polygon id="Fill-1" mask="url(#mask-2)" points="0.396126952 1.73275164 180.628422 1.73275164 180.628422 0.47693199 0.396126952 0.47693199"></polygon>
                    </g>
                    <g id="Group-6" transform="translate(60.148111, 28.203388)">
                        <mask id="mask-4" fill="white">
                            <use xlink:href="#path-3"></use>
                        </mask>
                        <g id="Clip-5"></g>
                        <polygon id="Fill-4" mask="url(#mask-4)" points="0.396126952 1.73275164 180.628422 1.73275164 180.628422 0.47693199 0.396126952 0.47693199"></polygon>
                    </g>
                    <g id="Group-47" transform="translate(0.000000, 0.255781)">
                        <path d="M225.465679,32.7404394 C226.115158,33.0387497 226.036783,33.9871457 226.036783,34.5716152 L226.036783,39.4666993 C226.036783,40.0517764 226.115158,41.0123235 225.452921,41.2462328 L228.036859,41.2851165 C227.349105,40.856789 227.361864,40.3373281 227.361864,39.6100827 L227.361864,33.7532364 C227.660174,33.7009865 227.959092,33.6748616 228.270769,33.6748616 C229.309691,33.6748616 230.114703,34.1299215 230.114703,35.2727356 C230.114703,36.5194419 228.907488,37.2078036 227.790191,37.2722046 C228.089109,37.4149805 228.414152,37.4544716 228.738587,37.4544716 C230.206444,37.4544716 231.595319,36.5060757 231.595319,35.0127014 C231.595319,33.5582107 230.310336,32.7404394 228.621329,32.7404394 L225.465679,32.7404394 Z M221.735889,37.1166701 L222.696436,37.1166701 C223.099246,37.1166701 223.644832,37.0905452 223.853224,37.4805966 L223.8915,36.1038731 C223.697082,36.1816404 223.489298,36.1816404 223.294272,36.1816404 L221.735889,36.1816404 L221.735889,33.7659951 C222.151458,33.6882278 222.60591,33.6748616 223.060363,33.6748616 C223.657591,33.6748616 224.190418,33.7271114 224.592621,34.1815638 L224.632112,32.6754308 C224.424327,32.7659568 224.203177,32.7404394 223.982634,32.7404394 L219.826946,32.7404394 C220.489183,33.025991 220.411416,33.9737794 220.411416,34.5716152 L220.411416,39.4666993 C220.411416,40.0517764 220.489183,41.0123235 219.826946,41.2462328 L222.281475,41.2851165 C221.631997,40.9995648 221.735889,40.0517764 221.735889,39.4666993 L221.735889,37.1166701 Z M215.733229,37.1166701 L213.174808,37.1166701 L214.460398,33.8437623 L215.733229,37.1166701 Z M216.109914,38.0772172 L216.811035,39.9090006 C217.162202,40.8179054 217.265487,40.9606812 216.629375,41.2462328 L219.291689,41.2851165 C218.551685,40.8701553 218.317775,40.1429099 218.018857,39.4022983 L215.31766,32.7404394 L213.265334,32.7404394 C213.889295,32.9737412 213.642627,33.5193271 213.46036,33.9871457 L211.291382,39.4022983 C211.006438,40.1429099 210.785288,40.8701553 210.031917,41.2462328 L212.421438,41.2851165 C211.798085,41.0123235 211.889218,40.6362459 212.162011,39.9090006 L212.837006,38.0772172 L216.109914,38.0772172 Z M203.641636,37.5449976 L206.836777,32.7404394 L204.563907,32.7404394 C205.291153,33.1298832 204.992235,33.7532364 204.771692,34.0776716 L203.161666,36.493317 L201.083215,33.1037583 C200.914314,32.8309653 200.52487,32.7404394 200.109302,32.7404394 L198.927604,32.7404394 C199.550957,33.0776334 199.810384,33.5065684 200.161552,34.0776716 L202.317163,37.5449976 L202.317163,39.4666993 C202.317163,40.0772938 202.407689,40.9217976 201.771577,41.2462328 L204.303873,41.2851165 C203.641636,40.7662631 203.641636,40.3762117 203.641636,39.5967165 L203.641636,37.5449976 Z M194.017938,32.8182066 C193.394585,32.623181 192.732349,32.5320475 192.08287,32.5320475 C190.498363,32.5320475 188.823329,33.1560082 188.823329,34.7921583 C188.823329,37.5449976 193.290693,37.1816787 193.290693,39.2078802 C193.290693,40.116785 192.174004,40.5578711 191.434,40.5578711 C190.420595,40.5578711 189.355549,40.1429099 188.58942,39.4800656 L188.966105,41.103457 C189.706716,41.37625 190.498363,41.4929009 191.290617,41.4929009 C193.316818,41.4929009 194.771309,40.1951598 194.771309,38.8044626 C194.771309,36.4021835 190.303944,36.4283084 190.303944,34.6493825 C190.303944,33.7532364 191.238974,33.4670772 191.978978,33.4670772 C192.706224,33.4670772 193.511844,33.7659951 194.017938,34.285456 L194.017938,32.8182066 Z M183.354104,33.4543185 C185.405823,33.4543185 186.614253,35.2848868 186.614253,37.1816787 C186.614253,39.1161391 185.35418,40.5578711 183.380229,40.5578711 C181.341268,40.5578711 180.055678,38.6878117 180.055678,36.8700021 C180.055678,34.9088092 181.341268,33.4543185 183.354104,33.4543185 L183.354104,33.4543185 Z M183.445237,32.5192888 C180.717915,32.4542802 178.575063,34.5193653 178.575063,36.986653 C178.575063,39.6489663 180.74404,41.4929009 183.31522,41.4929009 C185.899766,41.4929009 188.094261,39.5711991 188.094261,36.922252 C188.094261,34.5837663 186.172559,32.5059225 183.445237,32.5192888 L183.445237,32.5192888 Z M171.718178,32.7404394 C172.380415,33.025991 172.289889,33.9737794 172.289889,34.5716152 L172.289889,39.4666993 C172.289889,40.0517764 172.380415,41.0123235 171.718178,41.2462328 L174.198832,41.2851165 C173.536595,41.0123235 173.614363,40.0645351 173.614363,39.4666993 L173.614363,33.6493442 C173.912673,33.5970943 174.198832,33.5582107 174.49775,33.545452 C175.367771,33.5065684 176.172784,34.0515467 176.172784,34.9865764 C176.172784,36.2077653 174.964961,36.6877351 173.926039,36.8438772 L175.120496,38.675053 L176.705611,40.6362459 C177.095055,41.1162157 177.523382,41.2851165 178.211744,41.2851165 L179.4062,41.2851165 C178.666196,40.8179054 177.848425,40.1429099 177.302839,39.4666993 L175.432172,37.1166701 C176.497219,36.8700021 177.497257,35.973856 177.497257,34.8310419 C177.497257,33.6493442 176.549469,32.7404394 174.809427,32.7404394 L171.718178,32.7404394 Z M168.767883,41.2851165 L170.676826,41.2851165 C170.014589,40.9995648 170.092357,40.0517764 170.092357,39.4666993 L170.092357,34.5716152 C170.092357,33.9737794 170.014589,33.025991 170.676826,32.7787155 L168.19678,32.7404394 C168.846258,33.025991 168.767883,33.9737794 168.767883,34.558249 L168.767883,38.4672686 C168.767883,38.9344797 168.781249,39.258915 168.49509,39.6489663 C168.066763,40.2595608 167.326759,40.5578711 166.598906,40.5578711 C165.261673,40.5578711 164.534428,39.7528585 164.534428,38.0255749 L164.534428,34.558249 C164.534428,33.9737794 164.456661,33.025991 165.105531,32.7787155 L162.638244,32.7404394 C163.300481,33.025991 163.209955,33.9737794 163.209955,34.558249 L163.209955,38.0255749 C163.209955,38.9606046 163.18383,39.8306258 163.872191,40.5839961 C164.456661,41.2201079 165.365566,41.4929009 166.222828,41.4929009 C167.131733,41.4929009 168.19678,41.1818318 168.767883,40.427854 L168.767883,41.2851165 Z M161.116314,32.7531981 C160.441319,32.6104223 159.765716,32.5320475 159.077962,32.5320475 C155.935071,32.5320475 153.713844,34.2720898 153.713844,37.0644203 C153.713844,39.6750913 155.675037,41.4929009 158.999587,41.4929009 C160.051875,41.4929009 161.064672,41.2984827 162.103594,41.103457 C162.025827,40.9217976 162.038585,40.7140132 162.038585,40.5189875 L162.038585,37.5322389 C162.038585,37.3372132 162.038585,37.1300364 162.103594,36.9738943 L160.116884,36.9344031 C160.701353,37.2078036 160.714112,37.8439155 160.714112,38.4417512 L160.714112,40.3112031 C160.129642,40.4801039 159.506289,40.5578711 158.909061,40.5578711 C156.856734,40.5578711 155.194459,38.9739709 155.194459,36.8827608 C155.194459,34.7921583 156.740084,33.4670772 158.765677,33.4670772 C159.558539,33.4670772 160.545211,33.6493442 161.077431,34.2465724 L161.116314,32.7531981 Z M149.090945,37.1166701 L150.0521,37.1166701 C150.45491,37.1166701 151.000496,37.1039114 151.20828,37.4805966 L151.246556,36.1038731 C151.052138,36.1816404 150.844354,36.1816404 150.636569,36.1816404 L149.090945,36.1816404 L149.090945,33.7659951 C149.506514,33.6882278 149.961574,33.6748616 150.416026,33.6748616 C151.013254,33.6748616 151.546082,33.7271114 151.948284,34.1949301 L151.987168,32.6754308 C151.779383,32.7659568 151.55884,32.7404394 151.338297,32.7404394 L147.182002,32.7404394 C147.844846,33.025991 147.766471,33.9737794 147.766471,34.5716152 L147.766471,39.4666993 C147.766471,40.0517764 147.844846,41.0123235 147.182002,41.2462328 L152.597155,41.2851165 L153.181624,39.5845653 C152.49387,40.1550611 151.597724,40.427854 150.740461,40.3500868 L149.090945,40.1951598 L149.090945,37.1166701 Z M145.390317,32.8182066 C144.766964,32.623181 144.10412,32.5320475 143.455249,32.5320475 C141.870741,32.5320475 140.195708,33.1560082 140.195708,34.7921583 C140.195708,37.5449976 144.663072,37.1816787 144.663072,39.2078802 C144.663072,40.116785 143.546383,40.5578711 142.805771,40.5578711 C141.792974,40.5578711 140.727927,40.1429099 139.961798,39.4800656 L140.338484,41.103457 C141.078488,41.37625 141.870741,41.4929009 142.662995,41.4929009 C144.688589,41.4929009 146.14308,40.1951598 146.14308,38.8044626 C146.14308,36.4021835 141.675716,36.4283084 141.675716,34.6493825 C141.675716,33.7532364 142.611353,33.4670772 143.351357,33.4670772 C144.077995,33.4670772 144.883615,33.7659951 145.390317,34.285456 L145.390317,32.8182066 Z M133.856461,42.6752061 C134.064246,42.6752061 134.207022,42.5056978 134.349797,42.3635296 C134.752607,41.9345946 135.116534,41.350125 135.116534,40.7273794 C135.116534,40.2461946 134.817616,39.8433845 134.310914,39.8433845 C133.86922,39.8433845 133.532026,40.1690349 133.532026,40.610121 C133.532026,40.9868061 133.804819,41.2079568 134.142013,41.2984827 C134.207022,41.3112414 134.310914,41.3367588 134.310914,41.4284998 C134.310914,41.6885341 133.583668,42.4540555 133.363125,42.6363225 L133.856461,42.6752061 Z M128.814956,37.1166701 L126.256535,37.1166701 L127.542125,33.8437623 L128.814956,37.1166701 Z M129.191641,38.0772172 L129.892762,39.9090006 C130.243322,40.8179054 130.347214,40.9606812 129.711102,41.2462328 L132.373416,41.2851165 C131.632804,40.8701553 131.399502,40.1429099 131.100584,39.4022983 L128.399387,32.7404394 L126.347061,32.7404394 C126.970414,32.9737412 126.724354,33.5193271 126.542087,33.9871457 L124.373717,39.4022983 C124.087558,40.1429099 123.867015,40.8701553 123.113644,41.2462328 L125.503165,41.2851165 C124.879811,41.0123235 124.970945,40.6362459 125.243738,39.9090006 L125.918733,38.0772172 L129.191641,38.0772172 Z M122.385184,32.8570903 C121.619055,32.6754308 120.814042,32.5320475 120.021788,32.5320475 C117.359475,32.5320475 115.463291,34.311581 115.463291,37.0000192 C115.463291,39.7789835 117.359475,41.4929009 120.424598,41.4929009 C121.099594,41.4929009 121.775197,41.3890087 122.385184,41.103457 L123.047421,39.5967165 C122.190766,40.0645351 121.216852,40.4150953 120.242939,40.4150953 C118.242862,40.4150953 116.943906,38.7139366 116.943906,36.804386 C116.943906,34.9221754 118.190612,33.6104606 119.982905,33.6104606 C120.840167,33.6104606 121.671305,33.8954046 122.385184,34.3504646 L122.385184,32.8570903 Z M107.850605,34.5716152 L112.305211,40.2206772 C112.876314,40.9606812 113.279124,41.3890087 114.201395,41.7006852 L114.201395,34.4154731 C114.201395,33.6882278 114.201395,33.1687669 114.876391,32.7787155 L112.590763,32.7404394 C113.279124,33.1687669 113.265758,33.6882278 113.265758,34.4154731 L113.265758,39.3372898 L108.512842,33.3370601 L108.331183,33.0776334 C108.240049,32.9737412 108.188407,32.9087326 108.136157,32.7531981 L106.239973,32.7404394 C106.915576,33.1687669 106.915576,33.6882278 106.915576,34.4154731 L106.915576,39.5967165 C106.915576,40.3239618 106.915576,40.8440303 106.227214,41.2462328 L108.525601,41.2851165 C107.837239,40.8440303 107.850605,40.3239618 107.850605,39.5967165 L107.850605,34.5716152 Z M102.159622,37.1166701 L99.6012009,37.1166701 L100.886791,33.8437623 L102.159622,37.1166701 Z M102.536307,38.0772172 L103.237428,39.9090006 C103.587988,40.8179054 103.69188,40.9606812 103.055768,41.2462328 L105.718082,41.2851165 C104.97747,40.8701553 104.744168,40.1429099 104.44525,39.4022983 L101.744053,32.7404394 L99.6923344,32.7404394 C100.315688,32.9737412 100.06902,33.5193271 99.8867525,33.9871457 L97.7183828,39.4022983 C97.4322236,40.1429099 97.2116805,40.8701553 96.4589178,41.2462328 L98.8478306,41.2851165 C98.2244775,41.0123235 98.315611,40.6362459 98.5884039,39.9090006 L99.2633994,38.0772172 L102.536307,38.0772172 Z M91.2108432,36.1816404 L91.2108432,33.6365855 L92.0814719,33.545452 C92.8603596,33.4670772 93.6914971,33.9348958 93.6914971,34.8310419 C93.6914971,35.8954812 92.4836745,36.1816404 91.6391707,36.1816404 L91.2108432,36.1816404 Z M91.2108432,40.2461946 L91.2108432,37.0389029 L92.119748,36.986653 C93.2631697,36.922252 94.483751,37.4672303 94.483751,38.7273029 C94.483751,39.9606429 93.4059455,40.4539789 92.3408986,40.3500868 L91.2108432,40.2461946 Z M89.8863697,39.4539407 C89.8863697,40.0517764 89.9647445,40.9995648 89.3152664,41.2462328 L91.4581188,41.2851165 C92.4320321,41.2851165 93.4575878,41.3246077 94.3664926,40.8823064 C95.2365138,40.4673452 95.925483,39.6100827 95.925483,38.6100444 C95.925483,37.3372132 94.9770871,36.5583255 93.808148,36.3116575 C94.5487596,35.9866147 95.1071042,35.4932787 95.1071042,34.6232575 C95.1071042,33.4670772 94.1070659,32.7404394 92.3931485,32.7404394 L89.3152664,32.7404394 C89.9775032,33.025991 89.8863697,33.9737794 89.8863697,34.558249 L89.8863697,39.4539407 Z M80.7687666,37.1166701 L81.7299213,37.1166701 C82.1327314,37.1166701 82.6783173,37.1039114 82.8861017,37.4805966 L82.9249853,36.1038731 C82.7299596,36.1816404 82.5227828,36.1816404 82.3143908,36.1816404 L80.7687666,36.1816404 L80.7687666,33.7659951 C81.1843354,33.6882278 81.6387878,33.6748616 82.0938478,33.6748616 C82.691076,33.6748616 83.2239032,33.7271114 83.6261057,34.1949301 L83.6649893,32.6754308 C83.4572049,32.7659568 83.2366619,32.7404394 83.0161188,32.7404394 L78.8604311,32.7404394 C79.5226679,33.025991 79.4449007,33.9737794 79.4449007,34.5716152 L79.4449007,39.4666993 C79.4449007,40.0517764 79.5226679,41.0123235 78.8604311,41.2462328 L84.2755838,41.2851165 L84.8600533,39.5845653 C84.1716916,40.1550611 83.2755455,40.427854 82.418283,40.3500868 L80.7687666,40.1951598 L80.7687666,37.1166701 Z M71.7933319,33.8176374 C72.1827757,33.7271114 72.5722195,33.6748616 72.9616634,33.6748616 C75.1306407,33.6748616 76.4034719,34.8176757 76.4034719,37.0905452 C76.4034719,39.3372898 74.6761883,40.3500868 72.7411203,40.3500868 C72.416685,40.3500868 72.1050085,40.3239618 71.7933319,40.2595608 L71.7933319,33.8176374 Z M70.4682508,39.415057 C70.4682508,40.181186 70.5466256,40.8045391 69.8971475,41.2462328 L73.0139132,41.2851165 C75.9228946,41.2851165 77.8840876,39.4928243 77.8840876,36.9344031 C77.8840876,34.3504646 76.0395455,32.7404394 73.0789218,32.7404394 L69.8971475,32.7404394 C70.5593843,32.9737412 70.4682508,33.9215296 70.4682508,34.5193653 L70.4682508,39.415057 Z M69.8175576,15.0933482 L69.6796422,14.9596857 C68.9153359,14.2196817 67.6947546,13.7919618 66.5944694,13.7919618 C65.4583384,13.7919618 64.0889057,14.2032777 64.0889057,15.4451235 C64.0889057,16.0624011 64.4977913,16.5277895 65.1339032,16.9372827 C65.4522629,17.1420293 65.8259102,17.3309794 66.2281127,17.5156767 C66.6309228,17.701589 67.0610729,17.8820334 67.4912231,18.0697684 C69.2069631,18.8176706 70.9798135,19.6992354 70.9798135,21.4945653 C70.9798135,23.5620807 68.6923626,25.4758842 65.5324604,25.4758842 C64.3021581,25.4758842 63.0700331,25.3045532 61.9174981,24.9035658 L61.2364271,22.278921 L61.4205168,22.4289875 C62.5894558,23.3828515 64.2128473,23.9800797 65.753611,23.9800797 C66.8830588,23.9800797 68.5386508,23.3445754 68.5386508,22.0808575 C68.5386508,21.3712313 68.1261198,20.868782 67.4924382,20.4495679 C67.174686,20.2387457 66.8022538,20.0497956 66.4000513,19.8675286 C65.9966337,19.6840464 65.5670911,19.5084626 65.136941,19.3243729 C63.4163405,18.5880142 61.647743,17.701589 61.647743,15.6529079 C61.647743,13.2099225 64.3015505,12.2967648 66.7548644,12.2967648 C67.764016,12.2967648 68.7944321,12.4292122 69.7647002,12.7159789 L69.8175576,15.0933482 Z M81.0342689,24.0627074 C80.1071374,25.0627457 78.531743,25.4758842 77.1872201,25.4758842 C75.8487727,25.4758842 74.4210145,25.0736817 73.5005661,24.127716 C72.9592331,23.5681563 72.6991989,22.9654601 72.5746498,22.3329936 C72.4513158,21.7059951 72.4610367,21.0449734 72.4610367,20.360257 L72.4610367,15.3120686 C72.4610367,15.1000313 72.4695425,14.8545784 72.4671122,14.6006197 C72.4640745,14.3490913 72.4501007,14.089057 72.4045339,13.8436041 C72.3127928,13.354521 72.100148,12.9504958 71.628684,12.7846328 L71.5794719,12.5987205 L75.5431717,12.5987205 L75.5431717,12.7676213 C75.0334316,12.9504958 74.8195717,13.3539135 74.726008,13.8442117 C74.6786185,14.089057 74.6634296,14.3490913 74.6585692,14.6006197 C74.6543163,14.855186 74.661607,15.1000313 74.661607,15.3120686 L74.661607,20.360257 C74.661607,22.8560998 75.7673601,23.9800797 77.7674367,23.9800797 C78.8671143,23.9800797 79.9819808,23.5535749 80.6265984,22.6865915 C80.8404583,22.4119759 80.9419203,22.1604475 80.9905248,21.8955527 C81.0397369,21.6245825 81.0342689,21.3396384 81.0342689,21.0036595 L81.0342689,15.3120686 C81.0342689,15.1000313 81.0421672,14.855186 81.0373067,14.6006197 C81.0330538,14.3490913 81.0172573,14.089057 80.9704755,13.8442117 C80.8763042,13.3539135 80.6630518,12.9504958 80.2013087,12.7846328 L80.1527042,12.5987205 L84.0963546,12.5987205 L84.1540724,12.7615457 C83.6157772,12.9504958 83.3982719,13.354521 83.3016704,13.8466419 C83.2536735,14.0933099 83.2372694,14.3545593 83.232409,14.608518 C83.2275485,14.8655145 83.2348392,15.1140051 83.2348392,15.3315104 L83.2348392,22.4587578 C83.2348392,22.6714026 83.2275485,22.9168555 83.232409,23.1708142 C83.2372694,23.4223427 83.2536735,23.6823769 83.3016704,23.9272223 C83.3982719,24.4169129 83.6643818,24.8209381 84.1364533,24.9868011 L84.1364533,25.1727135 L81.0342689,25.1727135 L81.0342689,24.0627074 Z M118.093403,24.9224001 C118.466443,24.7273744 118.642635,24.3361079 118.721009,23.8743648 C118.801815,23.3950026 118.773867,22.8639981 118.773867,22.4587578 L118.773867,15.3315104 C118.773867,15.1140051 118.78298,14.8649069 118.779942,14.6079104 C118.776905,14.3539517 118.762931,14.0927024 118.717364,13.8460344 C118.625623,13.3539135 118.412978,12.9504958 117.941514,12.7846328 L117.89291,12.5987205 L121.856002,12.5987205 L121.856002,12.7676213 C121.346262,12.9504958 121.133009,13.3587739 121.038838,13.8539326 C120.944667,14.350914 120.975045,14.9092585 120.975045,15.3315104 L120.975045,22.4587578 C120.975045,22.6714026 120.967146,22.9168555 120.971399,23.1708142 C120.975652,23.4223427 120.991449,23.6823769 121.038838,23.9272223 C121.133009,24.4181281 121.394866,24.8215457 121.856002,24.9868011 L121.856002,25.1727135 L116.416547,25.1727135 C115.333273,25.1727135 114.647342,24.9193623 114.029457,24.2000152 L111.583434,21.3426762 L109.679959,18.5898369 L109.793572,18.5740404 C111.392053,18.3474218 113.192851,17.6578449 113.192851,15.9366369 C113.192851,14.6182389 111.994142,13.8502873 110.69154,13.9055749 C110.255922,13.9231941 109.838531,13.9754439 109.404128,14.0453129 L109.404128,22.4587578 C109.404128,22.6762631 109.396837,22.9253613 109.401698,23.1817502 C109.405951,23.4357089 109.422355,23.6963507 109.470959,23.9418036 C109.566953,24.4308868 109.834886,24.8294439 110.305742,24.9861936 L110.305742,25.1727135 L106.321993,25.1727135 L106.321993,25.0032051 C106.842061,24.8294439 107.055314,24.4272414 107.147055,23.9351205 C107.192622,23.6890601 107.206595,23.4272031 107.209026,23.1744595 C107.212063,22.9180706 107.203558,22.6714026 107.203558,22.4587578 L107.203558,15.3315104 C107.203558,15.1140051 107.212063,14.8649069 107.209026,14.6079104 C107.206595,14.3539517 107.192622,14.0927024 107.147055,13.8460344 C107.055314,13.3539135 106.842061,12.9504958 106.371205,12.7846328 L106.321993,12.5987205 L111.168472,12.5987205 C113.889111,12.5987205 115.393422,13.9462812 115.393422,15.7100182 C115.393422,17.3729009 113.888504,18.6779326 112.260252,19.0764898 L115.0781,22.4198742 C115.861848,23.3354621 117.01499,24.2528726 118.093403,24.9224001 L118.093403,24.9224001 Z M90.5662256,12.5987205 C93.196946,12.5987205 95.2322609,13.8065432 95.2322609,15.9743054 C95.2322609,18.1937099 93.0444493,19.5959507 90.7466699,19.5959507 C90.2399677,19.5959507 89.724152,19.5388404 89.2472201,19.3231578 L89.0011596,19.2119749 L89.2794206,19.196786 C90.9787566,19.1038298 92.7910981,18.1183729 92.7910981,16.3522056 C92.7910981,14.7354973 91.5966417,14.094525 90.0255002,14.094525 C89.5722629,14.094525 89.1366447,14.1285482 88.7016342,14.1965946 L88.7016342,22.6671497 C88.7016342,22.9308293 88.7010266,23.1750671 88.715608,23.4022933 C88.7301893,23.6283044 88.7605672,23.8348737 88.8219304,24.0238238 C88.9446568,24.3999014 89.2296009,24.7170459 89.7435939,24.9916616 L89.7435939,25.1727135 L85.6000573,25.1727135 L85.6000573,25.0032051 C86.1207334,24.8294439 86.3388462,24.4266339 86.4354478,23.9345129 C86.4834447,23.6884525 86.4998488,23.4265956 86.5041017,23.173852 C86.5095697,22.9180706 86.5016714,22.6714026 86.5016714,22.4587578 L86.5016714,15.3315104 C86.5016714,15.1194731 86.5095697,14.8740203 86.5047092,14.619454 C86.5004563,14.3679255 86.4846598,14.1066762 86.4372704,13.8612233 C86.3437067,13.3678873 86.1298468,12.9590016 85.6668886,12.7840253 L85.6201067,12.5987205 L90.5662256,12.5987205 Z M99.0732342,23.457581 L101.546597,23.6775165 C102.844946,23.7893069 104.205265,23.3992555 105.25087,22.5796616 L105.465945,22.4113684 L104.461047,25.1727135 L95.9710498,25.1727135 L95.9710498,25.0032051 C96.4917258,24.8294439 96.7098387,24.4266339 96.8064402,23.9345129 C96.8544372,23.6884525 96.8708412,23.4265956 96.8757017,23.173852 C96.8799546,22.9180706 96.8726639,22.6714026 96.8726639,22.4587578 L96.8726639,15.3315104 C96.8726639,15.1140051 96.8799546,14.8655145 96.8757017,14.608518 C96.8708412,14.3545593 96.8544372,14.0933099 96.8064402,13.8466419 C96.7098387,13.354521 96.4917258,12.9504958 96.0202619,12.7846328 L95.9710498,12.5987205 L102.459755,12.5987205 C102.628656,12.5987205 102.798164,12.6078339 102.964635,12.6011507 C103.126245,12.5944676 103.279957,12.571988 103.427593,12.5106248 L103.543029,12.4632354 L103.474982,14.9736595 L103.33889,14.8248082 C102.742876,14.1710772 101.956091,14.094525 101.037465,14.094525 C100.360039,14.094525 99.6886891,14.1121442 99.0732342,14.2148213 L99.0732342,17.6086328 L101.378304,17.6086328 C101.701524,17.6086328 102.004695,17.6074177 102.287817,17.5010953 L102.40143,17.4579588 L102.338244,19.5680031 L102.189392,19.5965583 C102.042971,19.3468525 101.778684,19.2229109 101.463362,19.1615477 C101.304182,19.1311699 101.135282,19.1165885 100.968811,19.1099054 C100.798695,19.1032223 100.631009,19.1044374 100.47669,19.1044374 L99.0732342,19.1044374 L99.0732342,23.457581 Z M125.727961,22.6483155 C125.727961,22.9113875 125.726138,23.1562328 125.740719,23.3840666 C125.755908,23.6100777 125.785678,23.816647 125.847649,24.0080273 C125.969768,24.3859276 126.254712,24.7079326 126.769313,24.9922691 L126.769313,25.1727135 L123.066255,25.1727135 L123.066255,25.0123185 C124.124011,24.4284565 124.128264,23.7109321 124.128264,22.6483155 L124.128264,15.1048918 C124.128264,14.0416676 124.123403,13.3247507 123.122758,12.7797724 L123.086304,12.5981129 L126.147782,12.6181623 C126.241346,12.8806268 126.317291,12.9711527 126.454598,13.1181815 L126.735897,13.4979044 L133.923293,22.0608082 L133.923293,15.1048918 C133.923293,14.8412122 133.924508,14.5969744 133.909926,14.3697482 C133.895345,14.1431296 133.864967,13.9371679 133.802996,13.7470026 C133.680877,13.3715326 133.432994,13.054388 132.918394,12.7797724 L132.881333,12.5987205 L136.564341,12.5987205 L136.564341,12.759723 C135.527242,13.3247507 135.522989,14.0416676 135.522989,15.1048918 L135.522989,25.8076102 L135.416667,25.773587 C133.972505,25.3124515 133.340038,24.6763396 132.455436,23.5942812 L125.727961,15.541725 L125.727961,22.6483155 Z M142.792405,22.6483155 C142.792405,22.916248 142.79119,23.162916 142.805771,23.3913573 C142.820353,23.6185835 142.85073,23.8251527 142.912701,24.015318 C143.03482,24.390788 143.318549,24.7079326 143.834365,24.9922691 L143.834365,25.1727135 L139.710877,25.1727135 L139.710877,25.0044203 C140.220618,24.8215457 140.43387,24.4181281 140.528041,23.9272223 C140.574823,23.6823769 140.59062,23.4223427 140.59548,23.1708142 C140.599125,22.9168555 140.591835,22.6714026 140.591835,22.4587578 L140.591835,14.094525 L138.908295,14.094525 C138.060754,14.094525 137.180404,14.2986641 136.518167,14.8320988 L136.307953,15.0009996 L137.174936,12.4401482 L137.258171,12.4729563 C137.368746,12.5160928 137.485397,12.5385724 137.609946,12.5543689 C137.736318,12.5707729 137.864513,12.5798862 137.992707,12.5987205 L145.95899,12.5987205 C146.296792,12.5987205 146.604216,12.5792787 146.910424,12.4717412 L147.057453,12.4194913 L146.248187,15.0167961 L146.164952,14.8047588 C145.923752,14.1917341 145.18071,14.094525 144.516651,14.094525 L142.792405,14.094525 L142.792405,22.6483155 Z M150.383826,23.457581 L152.857189,23.6775165 C154.156145,23.7893069 155.515857,23.3992555 156.562069,22.5796616 L156.777144,22.4113684 L155.771638,25.1727135 L147.282249,25.1727135 L147.282249,25.0032051 C147.802317,24.8294439 148.02043,24.4266339 148.117032,23.9345129 C148.165636,23.6884525 148.18204,23.4265956 148.186293,23.173852 C148.191154,22.9180706 148.183255,22.6714026 148.183255,22.4587578 L148.183255,15.3315104 C148.183255,15.1140051 148.191154,14.8655145 148.186293,14.608518 C148.18204,14.3545593 148.165636,14.0933099 148.117032,13.8466419 C148.02043,13.354521 147.802317,12.9504958 147.330853,12.7846328 L147.282249,12.5987205 L153.770954,12.5987205 C153.939855,12.5987205 154.108756,12.6078339 154.275226,12.6011507 C154.436836,12.5944676 154.590548,12.571988 154.738184,12.5106248 L154.854228,12.4632354 L154.786181,14.9736595 L154.650089,14.8248082 C154.053468,14.1710772 153.26729,14.094525 152.348664,14.094525 C151.671238,14.094525 150.999888,14.1121442 150.383826,14.2148213 L150.383826,17.6086328 L152.688896,17.6086328 C153.012723,17.6086328 153.315894,17.6074177 153.598408,17.5010953 L153.712021,17.4579588 L153.649443,19.5680031 L153.499984,19.5965583 C153.35417,19.3468525 153.089275,19.2229109 152.773954,19.1615477 C152.614774,19.1311699 152.445873,19.1165885 152.279402,19.1099054 C152.109287,19.1032223 151.941601,19.1044374 151.787889,19.1044374 L150.383826,19.1044374 L150.383826,23.457581 Z M160.174601,22.6483155 C160.174601,22.9113875 160.172779,23.1562328 160.187968,23.3840666 C160.202549,23.6100777 160.232319,23.816647 160.29429,24.0080273 C160.416409,24.3859276 160.700745,24.7079326 161.215954,24.9922691 L161.215954,25.1727135 L157.512896,25.1727135 L157.512896,25.0123185 C158.570652,24.4284565 158.574297,23.7109321 158.574297,22.6483155 L158.574297,15.1048918 C158.574297,14.0416676 158.570652,13.3247507 157.569398,12.7797724 L157.532945,12.5981129 L160.594423,12.6181623 C160.687987,12.8806268 160.763931,12.9711527 160.900632,13.1181815 L161.182538,13.4979044 L168.369326,22.0608082 L168.369326,15.1048918 C168.369326,14.8412122 168.370541,14.5969744 168.356567,14.3697482 C168.341986,14.1431296 168.311608,13.9371679 168.249637,13.7470026 C168.127518,13.3715326 167.879635,13.054388 167.365035,12.7797724 L167.327974,12.5987205 L171.010982,12.5987205 L171.010982,12.759723 C169.973883,13.3247507 169.96963,14.0416676 169.96963,15.1048918 L169.96963,25.8076102 L169.863308,25.773587 C168.418538,25.3124515 167.786071,24.6763396 166.902076,23.5942812 L160.173994,15.541725 L160.174601,22.6483155 Z M172.876181,15.2561734 C172.876181,15.0386681 172.885295,14.7895699 172.882257,14.5337885 C172.879219,14.2810449 172.865245,14.0216182 172.819678,13.7804182 C172.727937,13.2974107 172.5159,12.9158651 172.049297,12.7864555 L171.994617,12.5987205 L176.981442,12.5987205 C181.589152,12.5987205 184.4714,14.9706218 184.4714,18.7727114 C184.4714,22.5340948 181.411137,25.1727135 176.881195,25.1727135 L171.994617,25.1727135 L171.994617,25.0153563 C172.508002,24.685453 172.720039,24.3142359 172.812388,23.881048 C172.85917,23.66172 172.874966,23.4272031 172.879219,23.17932 C172.883472,22.9277915 172.876181,22.6616817 172.876181,22.3834208 L172.876181,15.2561734 Z M175.076752,23.5584354 C175.531811,23.6428857 175.986871,23.6769089 176.460766,23.6769089 C179.411668,23.6769089 182.030238,22.2242409 182.030238,18.9993301 C182.030238,15.7233845 180.0976,14.094525 176.800997,14.094525 C176.227464,14.094525 175.652715,14.1643941 175.076752,14.2877281 L175.076752,23.5584354 Z M188.038366,23.457581 L190.511729,23.6775165 C191.810077,23.7893069 193.170397,23.3992555 194.216002,22.5796616 L194.431077,22.4113684 L193.426178,25.1727135 L184.936789,25.1727135 L184.936789,25.0032051 C185.456857,24.8294439 185.67497,24.4266339 185.771572,23.9345129 C185.819569,23.6884525 185.835973,23.4265956 185.840833,23.173852 C185.845694,22.9180706 185.837795,22.6714026 185.837795,22.4587578 L185.837795,15.3315104 C185.837795,15.1140051 185.845694,14.8655145 185.840833,14.608518 C185.835973,14.3545593 185.819569,14.0933099 185.771572,13.8466419 C185.67497,13.354521 185.456857,12.9504958 184.985393,12.7846328 L184.936789,12.5987205 L191.424887,12.5987205 C191.594395,12.5987205 191.762688,12.6078339 191.929159,12.6011507 C192.090769,12.5944676 192.245088,12.571988 192.392117,12.5106248 L192.50816,12.4632354 L192.440114,14.9736595 L192.304021,14.8248082 C191.708008,14.1710772 190.92183,14.094525 190.002596,14.094525 C189.325171,14.094525 188.653821,14.1121442 188.038366,14.2148213 L188.038366,17.6086328 L190.342828,17.6086328 C190.666656,17.6086328 190.970434,17.6074177 191.252948,17.5010953 L191.366561,17.4579588 L191.303375,19.5680031 L191.154524,19.5965583 C191.00871,19.3468525 190.743816,19.2229109 190.429101,19.1615477 C190.268706,19.1311699 190.100413,19.1165885 189.933942,19.1099054 C189.763827,19.1032223 189.596141,19.1044374 189.441822,19.1044374 L188.038366,19.1044374 L188.038366,23.457581 Z M197.429369,22.6483155 C197.429369,22.9113875 197.428154,23.1562328 197.442735,23.3840666 C197.457317,23.6100777 197.487695,23.816647 197.549058,24.0080273 C197.671784,24.3859276 197.956121,24.7079326 198.470721,24.9922691 L198.470721,25.1727135 L194.767663,25.1727135 L194.767663,25.0123185 C195.82542,24.4284565 195.829672,23.7109321 195.829672,22.6483155 L195.829672,15.1048918 C195.829672,14.0416676 195.82542,13.3247507 194.824166,12.7797724 L194.787713,12.5981129 L197.849798,12.6181623 C197.942755,12.8806268 198.018699,12.9711527 198.156007,13.1181815 L198.437306,13.4979044 L205.624701,22.0608082 L205.624701,15.1048918 C205.624701,14.8412122 205.625916,14.5969744 205.611335,14.3697482 C205.596754,14.1431296 205.566983,13.9371679 205.505012,13.7470026 C205.382894,13.3715326 205.13501,13.054388 204.619802,12.7797724 L204.583349,12.5987205 L208.266358,12.5987205 L208.266358,12.759723 C207.228651,13.3247507 207.224398,14.0416676 207.224398,15.1048918 L207.224398,25.8076102 L207.118075,25.773587 C205.673306,25.3124515 205.041447,24.6763396 204.156844,23.5942812 L197.429369,15.541725 L197.429369,22.6483155 Z M219.363988,15.1395225 L219.240046,15.0654006 C218.148874,14.409847 216.882726,13.9997462 215.579517,13.9997462 C212.869815,13.9997462 210.9712,15.8691981 210.9712,18.5831538 C210.9712,21.3414611 212.95548,23.7716878 215.980505,23.7716878 C217.462335,23.7716878 218.950242,23.2680233 220.266209,22.5905976 L220.466703,22.4873129 L219.347584,24.8889845 C218.365772,25.3227799 217.311054,25.4758842 216.260588,25.4758842 C211.490053,25.4758842 208.530037,22.9502711 208.530037,18.8668827 C208.530037,14.9208021 211.485193,12.2967648 215.639665,12.2967648 C216.87179,12.2967648 218.120927,12.5057643 219.305055,12.7712666 L219.363988,15.1395225 Z M221.767482,15.3315104 C221.767482,15.1140051 221.775988,14.8649069 221.77295,14.6079104 C221.77052,14.3539517 221.756546,14.0927024 221.710372,13.8460344 C221.619238,13.3539135 221.405986,12.9504958 220.934522,12.7846328 L220.885917,12.5987205 L224.849617,12.5987205 L224.849617,12.7676213 C224.339877,12.9504958 224.126625,13.3587739 224.032453,13.8539326 C223.937674,14.350914 223.968052,14.9092585 223.968052,15.3315104 L223.968052,22.4587578 C223.968052,22.6714026 223.960154,22.9168555 223.965015,23.1708142 C223.969267,23.4223427 223.985064,23.6823769 224.032453,23.9272223 C224.126017,24.4181281 224.388482,24.8215457 224.849617,24.9868011 L224.849617,25.1727135 L220.885917,25.1727135 L220.885917,25.0038127 C221.395657,24.8300515 221.609517,24.427849 221.703689,23.9345129 C221.75047,23.6890601 221.766267,23.4265956 221.77052,23.173852 C221.774773,22.9180706 221.767482,22.6714026 221.767482,22.4587578 L221.767482,15.3315104 Z M229.861352,20.5030328 L228.838227,23.1234248 C228.412937,24.1939396 228.355827,24.6733019 229.242859,24.9868011 L229.242859,25.1727135 L225.399456,25.1727135 L225.399456,25.0086731 C226.003975,24.7243366 226.369724,24.3342852 226.650415,23.8737573 C226.791976,23.6422782 226.910449,23.3943951 227.021632,23.1380061 C227.132815,22.879187 227.236707,22.610647 227.347283,22.3421069 L230.69249,14.4578439 C230.761751,14.2889432 230.837696,14.1133593 230.897236,13.9402056 C230.956777,13.7676595 230.998091,13.6017966 231.002951,13.4511225 C231.012672,13.1582802 230.885085,12.9176878 230.440354,12.785848 L230.387496,12.5987205 L233.685921,12.5987205 L237.871379,22.3414993 C237.986207,22.6100394 238.09496,22.8785794 238.211611,23.1373986 C238.327047,23.3937875 238.449166,23.6416706 238.593157,23.8737573 C238.878708,24.3342852 239.285164,24.7249442 239.839255,24.9898389 L239.839255,25.1727135 L235.575423,25.1727135 L235.575423,25.0068505 C236.110072,24.7802318 236.273505,24.6404938 236.286871,24.4126601 C236.292947,24.2905412 236.257101,24.1368293 236.181764,23.9253996 C236.106427,23.7145774 235.994637,23.4539356 235.859759,23.1240323 L234.796535,20.5030328 L229.861352,20.5030328 Z M232.30859,14.4748555 L230.437316,18.9701674 L234.161031,18.9701674 L232.30859,14.4748555 L229.861352,20.5030328 L232.30859,14.4748555 Z" id="Fill-7" fill="#001E6B"></path>
                        <path d="M117.265668,58.1741592 C117.265668,57.9317441 117.211596,57.7263899 117.102843,57.5580967 C116.99409,57.3904111 116.811823,57.2701149 116.55665,57.1966005 C116.476452,57.1741209 116.385926,57.1577169 116.285679,57.1486035 C116.184825,57.1388826 116.052985,57.1340222 115.89016,57.1340222 L115.195115,57.1340222 L115.195115,59.2240171 L116.000128,59.2240171 C116.217633,59.2240171 116.405368,59.1978922 116.563333,59.1450348 C116.721297,59.0921773 116.853745,59.018663 116.958852,58.9238841 C117.064567,58.8303204 117.141727,58.71853 117.191546,58.5915506 C117.240758,58.4633562 117.265668,58.3242257 117.265668,58.1741592 M118.506906,62.5315557 C118.506906,62.557073 118.502654,62.5795526 118.492933,62.5983869 C118.483212,62.6178287 118.462555,62.6342327 118.430354,62.6463839 C118.398761,62.6597501 118.353802,62.6688635 118.296084,62.6755466 C118.238974,62.6816222 118.162422,62.6852675 118.066428,62.6852675 C117.983193,62.6852675 117.915146,62.6816222 117.862289,62.6755466 C117.810039,62.6688635 117.76751,62.658535 117.73531,62.6439537 C117.703717,62.6299798 117.678807,62.6099305 117.661188,62.5844131 C117.643568,62.5588957 117.62838,62.5266952 117.615621,62.4884191 L117.045125,61.0260302 C116.978294,60.8601673 116.908425,60.7076705 116.836733,60.5685401 C116.765042,60.4294096 116.679376,60.3097209 116.580344,60.2094741 C116.481313,60.1086196 116.364662,60.0302448 116.230392,59.9743496 C116.096122,59.9184544 115.934512,59.8898992 115.746169,59.8898992 L115.195115,59.8898992 L115.195115,62.5315557 C115.195115,62.557073 115.187824,62.5795526 115.173243,62.5983869 C115.158662,62.6178287 115.13679,62.6330176 115.106412,62.6439537 C115.076034,62.6554972 115.034113,62.6652181 114.981863,62.6731164 C114.929005,62.6810146 114.862174,62.6852675 114.782584,62.6852675 C114.702994,62.6852675 114.636163,62.6810146 114.583305,62.6731164 C114.531056,62.6652181 114.488527,62.6554972 114.456326,62.6439537 C114.424733,62.6330176 114.402254,62.6178287 114.389495,62.5983869 C114.376736,62.5795526 114.370053,62.557073 114.370053,62.5315557 L114.370053,56.78893 C114.370053,56.6643809 114.403469,56.5768927 114.468477,56.5276806 C114.534093,56.477861 114.603962,56.4529511 114.677477,56.4529511 L115.995267,56.4529511 C116.152017,56.4529511 116.282034,56.457204 116.385926,56.4651023 C116.489818,56.4730005 116.583382,56.4821139 116.666617,56.4912272 C116.905995,56.5331486 117.118032,56.5987647 117.302122,56.6880756 C117.485604,56.7773864 117.639923,56.8909995 117.764472,57.0283073 C117.889021,57.1662227 117.982585,57.3235798 118.044556,57.5009864 C118.107134,57.6783929 118.13812,57.8740262 118.13812,58.0878861 C118.13812,58.2956705 118.110172,58.4815829 118.054277,58.6462307 C117.998382,58.8108786 117.917577,58.9560846 117.811862,59.0824564 C117.706754,59.2088282 117.580383,59.3181884 117.433354,59.410537 C117.286325,59.5034932 117.122285,59.581868 116.940018,59.6456615 C117.042087,59.6906207 117.134436,59.7471234 117.217671,59.8157773 C117.300906,59.8844312 117.378674,59.9670589 117.450365,60.0624453 C117.522057,60.1590469 117.590103,60.2690146 117.653897,60.3935637 C117.718298,60.5181128 117.782091,60.659066 117.845885,60.8158156 L118.401799,62.181603 C118.446758,62.2964312 118.475314,62.3772363 118.488072,62.4234106 C118.500831,62.4701924 118.506906,62.5060383 118.506906,62.5315557" id="Fill-9" fill="#001E6B"></path>
                        <path d="M122.322848,59.9577026 C122.332569,59.5415262 122.239613,59.2158759 122.045803,58.9795363 C121.851384,58.7431968 121.562795,58.6247232 121.180034,58.6247232 C120.983794,58.6247232 120.811855,58.6611766 120.664219,58.734691 C120.515975,58.8082053 120.392033,58.906022 120.292394,59.0275333 C120.192755,59.1490446 120.115595,59.2899978 120.060915,59.4516079 C120.006235,59.6132179 119.975857,59.7815111 119.969174,59.9577026 L122.322848,59.9577026 Z M123.118748,60.1922194 C123.118748,60.3167686 123.087762,60.4054718 123.024576,60.4583293 C122.962606,60.5111867 122.890914,60.5373116 122.810716,60.5373116 L119.969174,60.5373116 C119.969174,60.7772965 119.993476,60.9929791 120.041473,61.1849671 C120.090078,61.3763474 120.170275,61.5409953 120.282673,61.6783031 C120.395071,61.8162184 120.540885,61.9207182 120.720722,61.9948401 C120.900558,62.0683545 121.120494,62.1048079 121.380528,62.1048079 C121.585882,62.1048079 121.769364,62.0884038 121.929759,62.0543807 C122.090154,62.020965 122.229285,61.9832965 122.346543,61.9419827 C122.463194,61.9000613 122.560403,61.8630003 122.63574,61.8295847 C122.711077,61.7955615 122.76758,61.7791575 122.806464,61.7791575 C122.828943,61.7791575 122.848993,61.7846255 122.867219,61.7955615 C122.884231,61.8071051 122.897597,61.8235091 122.907926,61.8459887 C122.917646,61.8690759 122.92433,61.8994537 122.92919,61.9395524 C122.93405,61.9796512 122.936481,62.0282557 122.936481,62.0859736 C122.936481,62.1272875 122.935266,62.1631333 122.93162,62.1941187 C122.928582,62.223889 122.92433,62.251229 122.919469,62.2749237 C122.915216,62.299226 122.907318,62.321098 122.895774,62.3399323 C122.884838,62.3587665 122.870257,62.3769932 122.852638,62.3952199 C122.835019,62.4128391 122.783376,62.4413943 122.696496,62.4808854 C122.61083,62.5215917 122.498432,62.5604754 122.361125,62.5987514 C122.223817,62.6370275 122.064637,62.6716582 121.884193,62.7020361 C121.703748,62.7318063 121.511153,62.7476028 121.306406,62.7476028 C120.952201,62.7476028 120.641132,62.6977832 120.374414,62.5987514 C120.107697,62.4997197 119.882901,62.352691 119.701241,62.1576653 C119.518974,61.9632472 119.381667,61.7177943 119.28871,61.4243444 C119.196362,61.130287 119.14958,60.7882325 119.14958,60.3987887 C119.14958,60.0275716 119.197577,59.6946305 119.293571,59.3987504 C119.389565,59.1034779 119.52748,58.852557 119.707925,58.6465953 C119.888976,58.440026 120.107089,58.2820613 120.362263,58.1720935 C120.618044,58.0615182 120.904204,58.0062305 121.220741,58.0062305 C121.55915,58.0062305 121.847739,58.0609106 122.085294,58.1696633 C122.324064,58.2778084 122.519697,58.4242295 122.672801,58.6077116 C122.826513,58.7918013 122.938911,59.0080915 123.01121,59.2553671 C123.082902,59.5026426 123.118748,59.7675373 123.118748,60.0482285 L123.118748,60.1922194 Z" id="Fill-11" fill="#001E6B"></path>
                        <path d="M127.471648,60.4032846 C127.471648,60.1827416 127.454637,59.9694892 127.420614,59.7629199 C127.38659,59.5569582 127.32948,59.3746912 127.24746,59.2142962 C127.164832,59.0545088 127.054864,58.9263144 126.916949,58.830928 C126.778426,58.734934 126.606488,58.686937 126.400526,58.686937 C126.297849,58.686937 126.196387,58.7021259 126.096748,58.7325038 C125.997108,58.7628816 125.895646,58.8108786 125.792969,58.8764947 C125.689685,58.9421108 125.582755,59.0277763 125.469749,59.1353139 C125.357351,59.2422438 125.23827,59.3746912 125.113113,59.5302257 L125.113113,61.2471809 C125.331834,61.5120756 125.53901,61.7149995 125.735251,61.8559526 C125.931492,61.9962982 126.137454,62.0661673 126.352529,62.0661673 C126.551807,62.0661673 126.723138,62.0187778 126.865914,61.9227839 C127.00869,61.8273975 127.125341,61.699203 127.213437,61.5394156 C127.30214,61.3790207 127.367149,61.200399 127.408462,61.0023355 C127.450384,60.804272 127.471648,60.6043859 127.471648,60.4032846 M128.291242,60.3121511 C128.291242,60.6894438 128.250536,61.0278529 128.168516,61.3279859 C128.087711,61.629334 127.967415,61.8839003 127.80945,62.0928997 C127.651485,62.3025068 127.455852,62.4641169 127.221942,62.5771224 C126.988641,62.6907355 126.721923,62.7472383 126.421183,62.7472383 C126.294203,62.7472383 126.175122,62.7344796 126.06637,62.7089622 C125.958225,62.6834448 125.851902,62.6439537 125.74801,62.5892736 C125.644118,62.535201 125.540833,62.4665471 125.438764,62.3833118 C125.336087,62.3000766 125.227941,62.2022599 125.113113,62.0904695 L125.113113,64.2479033 C125.113113,64.2734207 125.10643,64.2952927 125.093671,64.3147345 C125.080913,64.3341763 125.060256,64.3499728 125.031093,64.363339 C125.003145,64.3754902 124.962439,64.3852111 124.911404,64.3912866 C124.86037,64.3979698 124.794754,64.4010076 124.715164,64.4010076 C124.638611,64.4010076 124.57421,64.3979698 124.523176,64.3912866 C124.472141,64.3852111 124.431435,64.3754902 124.401057,64.363339 C124.370679,64.3499728 124.349415,64.3341763 124.339086,64.3147345 C124.327542,64.2952927 124.321467,64.2734207 124.321467,64.2479033 L124.321467,58.2221562 C124.321467,58.1929935 124.326327,58.1699063 124.336656,58.1528947 C124.345769,58.1352756 124.365211,58.1194791 124.394374,58.107328 C124.422321,58.0939617 124.459382,58.0854559 124.503734,58.0805955 C124.548693,58.075735 124.602766,58.0733048 124.667167,58.0733048 C124.733998,58.0733048 124.789286,58.075735 124.832422,58.0805955 C124.876166,58.0854559 124.911404,58.0939617 124.940567,58.107328 C124.969122,58.1194791 124.989172,58.1352756 125.000715,58.1528947 C125.011044,58.1699063 125.017119,58.1929935 125.017119,58.2221562 L125.017119,58.8017652 C125.148352,58.6681028 125.274116,58.5514519 125.395627,58.4524202 C125.517138,58.3533884 125.639257,58.2707607 125.762591,58.2051446 C125.885925,58.1395285 126.01169,58.0903164 126.141707,58.0569008 C126.270509,58.0228776 126.407209,58.0064736 126.550592,58.0064736 C126.864092,58.0064736 127.130809,58.0672292 127.35196,58.188133 C127.571895,58.3102519 127.751732,58.4761149 127.890862,58.686937 C128.029993,58.8977592 128.131455,59.1432121 128.195248,59.4232957 C128.259042,59.7027718 128.291242,59.9992594 128.291242,60.3121511" id="Fill-13" fill="#001E6B"></path>
                        <path d="M131.718591,56.1130232 C131.737425,56.0777849 131.759905,56.0492297 131.785422,56.0261426 C131.81094,56.0042705 131.842532,55.9866514 131.879593,55.9738927 C131.916047,55.961134 131.961006,55.9514131 132.015686,55.9453375 C132.069759,55.9386544 132.135982,55.9356166 132.211927,55.9356166 C132.301845,55.9356166 132.374752,55.9410846 132.430647,55.9520207 C132.486543,55.9635642 132.525426,55.9793607 132.547906,56.0000176 C132.569778,56.0212821 132.580106,56.0449768 132.576461,56.0723169 C132.573423,56.0996569 132.559449,56.126997 132.533932,56.1555521 L131.665734,57.2728489 C131.640216,57.3050494 131.617129,57.3305668 131.596472,57.349401 C131.575815,57.3688428 131.551513,57.3840317 131.52478,57.3949678 C131.49744,57.4065113 131.462202,57.4144096 131.419065,57.4186625 C131.375929,57.4241305 131.322464,57.4265607 131.258063,57.4265607 C131.188194,57.4265607 131.132299,57.4210927 131.090985,57.4119793 C131.049063,57.4022584 131.019901,57.3901073 131.001674,57.3737033 C130.984055,57.3579068 130.977979,57.3372499 130.98284,57.3117325 C130.9877,57.2862151 131.001066,57.2552297 131.022939,57.2199914 L131.718591,56.1130232 Z M133.175512,62.5361123 C133.175512,62.5616297 133.170651,62.5835018 133.159108,62.6011209 C133.148172,62.6187401 133.127515,62.633929 133.09896,62.6466877 C133.070405,62.6594463 133.032736,62.6691673 132.986562,62.6758504 C132.940387,62.6819259 132.883277,62.6849637 132.816446,62.6849637 C132.742931,62.6849637 132.682783,62.6819259 132.636609,62.6758504 C132.590435,62.6691673 132.553374,62.6594463 132.526034,62.6466877 C132.499301,62.633929 132.481075,62.6187401 132.470746,62.6011209 C132.461633,62.5835018 132.456772,62.5616297 132.456772,62.5361123 L132.456772,61.9662242 C132.210712,62.237802 131.967689,62.4358655 131.728312,62.5604146 C131.488327,62.6849637 131.245912,62.7475421 130.999244,62.7475421 C130.71187,62.7475421 130.469454,62.6995451 130.273214,62.6035511 C130.076973,62.5075572 129.917793,62.3775401 129.796282,62.2128922 C129.67477,62.0488519 129.58789,61.8562564 129.535032,61.637536 C129.482175,61.4182081 129.45605,61.1527058 129.45605,60.8392065 L129.45605,58.2224599 C129.45605,58.1969426 129.461518,58.1750705 129.473061,58.1574514 C129.483997,58.1398322 129.505262,58.1240358 129.537462,58.1094544 C129.569663,58.0954806 129.610977,58.0851521 129.662012,58.0802917 C129.713046,58.0754312 129.777447,58.0736086 129.853999,58.0736086 C129.930552,58.0736086 129.994345,58.0754312 130.04538,58.0802917 C130.096415,58.0851521 130.137121,58.0954806 130.167499,58.1094544 C130.197877,58.1240358 130.219749,58.1398322 130.232507,58.1574514 C130.245266,58.1750705 130.251949,58.1969426 130.251949,58.2224599 L130.251949,60.7334917 C130.251949,60.9862353 130.270176,61.1885516 130.307237,61.3404408 C130.343083,61.49233 130.399585,61.621132 130.474315,61.7286695 C130.549652,61.8355995 130.644431,61.9188348 130.759866,61.9777678 C130.874695,62.0373083 131.008965,62.066471 131.162677,62.066471 C131.36074,62.066471 131.557588,61.996602 131.755044,61.8556489 C131.951285,61.7153033 132.159677,61.5093416 132.38022,61.2377637 L132.38022,58.2224599 C132.38022,58.1969426 132.385688,58.1750705 132.396624,58.1574514 C132.408168,58.1398322 132.429432,58.1240358 132.461633,58.1094544 C132.493226,58.0954806 132.53454,58.0851521 132.583752,58.0802917 C132.633571,58.0754312 132.697972,58.0736086 132.77817,58.0736086 C132.854722,58.0736086 132.919123,58.0754312 132.970158,58.0802917 C133.021192,58.0851521 133.060684,58.0954806 133.089846,58.1094544 C133.118402,58.1240358 133.140274,58.1398322 133.154247,58.1574514 C133.168829,58.1750705 133.175512,58.1969426 133.175512,58.2224599 L133.175512,62.5361123 Z" id="Fill-15" fill="#001E6B"></path>
                        <path d="M137.787657,60.4127625 C137.787657,60.1922194 137.770645,59.9783595 137.736622,59.7699676 C137.702599,59.5627907 137.644273,59.3793086 137.560431,59.2189137 C137.477195,59.0591262 137.36662,58.9309318 137.228097,58.8331152 C137.090182,58.7359061 136.917636,58.686694 136.711674,58.686694 C136.608997,58.686694 136.508142,58.7018829 136.407896,58.7298305 C136.308256,58.7589932 136.206794,58.8063827 136.104117,58.874429 C136.00144,58.9412603 135.89451,59.0275333 135.783327,59.1332482 C135.672752,59.2383555 135.554278,59.3708028 135.429122,59.5305902 L135.429122,61.2517983 C135.647842,61.516693 135.856234,61.7190094 136.055513,61.8581398 C136.255399,61.9966628 136.462576,62.0665318 136.678258,62.0665318 C136.877537,62.0665318 137.047653,62.0191424 137.189821,61.9225409 C137.330774,61.8271545 137.44621,61.6995676 137.534306,61.5416028 C137.623009,61.3836381 137.686802,61.2062315 137.726901,61.0093832 C137.767607,60.8131424 137.787657,60.6138638 137.787657,60.4127625 M138.607251,60.3222366 C138.607251,60.6958839 138.566544,61.0324703 138.484524,61.3307807 C138.403719,61.6296985 138.283423,61.8842648 138.125458,62.0956945 C137.967494,62.3059091 137.773075,62.4675192 137.543419,62.5793096 C137.313155,62.6911001 137.048868,62.7476028 136.751773,62.7476028 C136.614465,62.7476028 136.487486,62.733629 136.370835,62.706289 C136.254184,62.6789489 136.139963,62.6352048 136.028173,62.5750567 C135.916382,62.5143011 135.803984,62.4371414 135.692801,62.3447927 C135.580403,62.2518366 135.462537,62.1400461 135.337988,62.0094215 L135.337988,62.5361731 C135.337988,62.5616905 135.331305,62.5841701 135.319154,62.6030043 C135.305788,62.6230537 135.285131,62.6376351 135.256576,62.6491786 C135.227413,62.6601147 135.192175,62.669228 135.148431,62.6759111 C135.105294,62.6813791 135.050006,62.6850245 134.983175,62.6850245 C134.918774,62.6850245 134.864702,62.6813791 134.819742,62.6759111 C134.775391,62.669228 134.73833,62.6601147 134.710382,62.6491786 C134.68122,62.6376351 134.661778,62.6230537 134.652664,62.6030043 C134.642336,62.5841701 134.637475,62.5616905 134.637475,62.5361731 L134.637475,56.1319182 C134.637475,56.1064008 134.643551,56.0839212 134.655095,56.065087 C134.665423,56.0462527 134.686688,56.0298487 134.717065,56.01709 C134.747443,56.0043313 134.78815,55.9952179 134.839184,55.9885348 C134.890219,55.9818517 134.95462,55.9788139 135.031172,55.9788139 C135.110762,55.9788139 135.176378,55.9818517 135.227413,55.9885348 C135.278448,55.9952179 135.319154,56.0043313 135.347102,56.01709 C135.376264,56.0298487 135.396921,56.0462527 135.40968,56.065087 C135.422439,56.0839212 135.429122,56.1064008 135.429122,56.1319182 L135.429122,58.7158567 C135.556709,58.5846245 135.68065,58.4746567 135.800339,58.3847383 C135.920635,58.2960351 136.037894,58.2231283 136.153329,58.167233 C136.26755,58.1113378 136.382378,58.0706315 136.497814,58.0451142 C136.612642,58.0195968 136.734761,58.0062305 136.862348,58.0062305 C137.17524,58.0062305 137.443172,58.0688089 137.665538,58.193358 C137.887296,58.3179071 138.06774,58.4849852 138.206871,58.6945922 C138.346001,58.9035917 138.447463,59.1490446 138.511257,59.4303434 C138.57505,59.7116421 138.607251,60.0087373 138.607251,60.3222366" id="Fill-17" fill="#001E6B"></path>
                        <path d="M140.586913,62.5362339 C140.586913,62.5617512 140.58023,62.5836233 140.568079,62.6006349 C140.554713,62.6188616 140.534056,62.6340505 140.505501,62.6468092 C140.476338,62.6595679 140.436847,62.6692888 140.385812,62.6753643 C140.33417,62.6814399 140.269161,62.6850852 140.188964,62.6850852 C140.112412,62.6850852 140.048011,62.6814399 139.996976,62.6753643 C139.945941,62.6692888 139.905235,62.6595679 139.874857,62.6468092 C139.844479,62.6340505 139.823822,62.6188616 139.812886,62.6006349 C139.801343,62.5836233 139.795875,62.5617512 139.795875,62.5362339 L139.795875,56.1319789 C139.795875,56.1064616 139.801343,56.083982 139.812886,56.0651477 C139.823822,56.0457059 139.844479,56.0299094 139.874857,56.0171507 C139.905235,56.004392 139.945941,55.9946711 139.996976,55.9885956 C140.048011,55.9819124 140.112412,55.9788747 140.188964,55.9788747 C140.269161,55.9788747 140.33417,55.9819124 140.385812,55.9885956 C140.436847,55.9946711 140.476338,56.004392 140.505501,56.0171507 C140.534056,56.0299094 140.554713,56.0457059 140.568079,56.0651477 C140.58023,56.083982 140.586913,56.1064616 140.586913,56.1319789 L140.586913,62.5362339 Z" id="Fill-19" fill="#001E6B"></path>
                        <path d="M142.840341,62.5362339 C142.840341,62.5617512 142.833658,62.5836233 142.820899,62.6006349 C142.808141,62.6188616 142.787484,62.6340505 142.758321,62.6468092 C142.729766,62.6595679 142.689667,62.6692888 142.638632,62.6753643 C142.587598,62.6814399 142.521981,62.6850852 142.442392,62.6850852 C142.365839,62.6850852 142.301438,62.6814399 142.250404,62.6753643 C142.199369,62.6692888 142.158663,62.6595679 142.128285,62.6468092 C142.097299,62.6340505 142.076642,62.6188616 142.066314,62.6006349 C142.05477,62.5836233 142.048695,62.5617512 142.048695,62.5362339 L142.048695,58.2219739 C142.048695,58.1994943 142.05477,58.1788374 142.066314,58.1600031 C142.076642,58.1405613 142.097299,58.1247648 142.128285,58.1120061 C142.158663,58.0986399 142.199369,58.0895265 142.250404,58.0828434 C142.301438,58.0767679 142.365839,58.0731225 142.442392,58.0731225 C142.521981,58.0731225 142.587598,58.0767679 142.638632,58.0828434 C142.689667,58.0895265 142.729766,58.0986399 142.758321,58.1120061 C142.787484,58.1247648 142.808141,58.1405613 142.820899,58.1600031 C142.833658,58.1788374 142.840341,58.1994943 142.840341,58.2219739 L142.840341,62.5362339 Z M142.930867,56.765053 C142.930867,56.9503578 142.896236,57.0767296 142.82576,57.1435608 C142.755283,57.210392 142.625874,57.2444152 142.437531,57.2444152 C142.251619,57.2444152 142.124639,57.2109996 142.056593,57.145991 C141.987939,57.0809825 141.953308,56.9564334 141.953308,56.7747739 C141.953308,56.5888616 141.988547,56.4630973 142.059023,56.3956585 C142.128892,56.3282197 142.258302,56.2954117 142.447252,56.2954117 C142.631949,56.2954117 142.758929,56.3276122 142.827582,56.3932283 C142.896844,56.4588444 142.930867,56.582786 142.930867,56.765053 L142.930867,56.765053 Z" id="Fill-21" fill="#001E6B"></path>
                        <path d="M147.403517,61.8794651 C147.403517,61.9341452 147.402302,61.9809271 147.398657,62.0210258 C147.395619,62.0611245 147.390151,62.0945402 147.382253,62.1212726 C147.373747,62.1486127 147.364633,62.172915 147.35309,62.1941794 C147.342154,62.2148364 147.316636,62.2452142 147.276538,62.2847054 C147.237047,62.3248041 147.168393,62.3740162 147.073006,62.4335568 C146.977012,62.4924898 146.868867,62.5453472 146.749179,62.5915215 C146.62949,62.6376958 146.499473,62.6759719 146.35852,62.7039195 C146.218174,62.7330822 146.072968,62.7476636 145.922294,62.7476636 C145.61244,62.7476636 145.337824,62.6966288 145.097839,62.5939517 C144.858462,62.4918822 144.657361,62.3424233 144.496358,62.1455749 C144.334748,61.9493341 144.212022,61.7081341 144.126964,61.4219749 C144.042514,61.1358157 143.999985,60.8059124 143.999985,60.4316575 C143.999985,60.0069754 144.051627,59.6418339 144.155519,59.3362328 C144.259411,59.031847 144.402187,58.780926 144.582631,58.5865079 C144.763076,58.3914822 144.975721,58.2468837 145.219958,58.1527124 C145.464804,58.0585412 145.729091,58.0111517 146.013427,58.0111517 C146.150735,58.0111517 146.284398,58.0239104 146.413807,58.0494278 C146.543217,58.0749452 146.662298,58.1089684 146.771051,58.1502822 C146.879803,58.1922036 146.976405,58.239593 147.061463,58.2942731 C147.145305,58.3483457 147.207276,58.3951276 147.245552,58.4327961 C147.283828,58.4716797 147.310561,58.50145 147.324535,58.5245371 C147.339116,58.5464092 147.35066,58.5731417 147.360988,58.6029119 C147.370101,58.6332898 147.376177,58.6679205 147.379822,58.7061966 C147.38286,58.7444726 147.384683,58.7924696 147.384683,58.8501875 C147.384683,58.9747366 147.370101,59.0616172 147.340939,59.1108293 C147.312991,59.160649 147.277145,59.1855588 147.236439,59.1855588 C147.188442,59.1855588 147.133154,59.1588263 147.070576,59.1065764 C147.008605,59.0543265 146.929015,58.9953936 146.833629,58.9316001 C146.737027,58.8678066 146.621592,58.8088737 146.485499,58.7566238 C146.350014,58.7037663 146.189011,58.6770339 146.003706,58.6770339 C145.623376,58.6770339 145.332356,58.8240626 145.129432,59.1162973 C144.926509,59.4085321 144.825047,59.8326066 144.825047,60.3891286 C144.825047,60.666782 144.851171,60.9104122 144.904029,61.1200192 C144.956886,61.3296263 145.034046,61.5046026 145.136723,61.6443407 C145.238793,61.7859014 145.364557,61.8904011 145.512801,61.959055 C145.661045,62.0277089 145.83116,62.0617321 146.023148,62.0617321 C146.204808,62.0617321 146.365203,62.0331769 146.502511,61.975459 C146.639818,61.9177412 146.758899,61.8551628 146.859146,61.7865089 C146.960608,61.7172475 147.045059,61.6552767 147.113713,61.5993815 C147.182366,61.5434862 147.236439,61.5149311 147.274108,61.5149311 C147.296587,61.5149311 147.315421,61.5216142 147.331825,61.5349805 C147.347622,61.5471316 147.361596,61.5690036 147.372532,61.5993815 C147.384075,61.6297593 147.391366,61.6680354 147.396226,61.7148172 C147.401087,61.7609915 147.403517,61.8162792 147.403517,61.8794651" id="Fill-23" fill="#001E6B"></path>
                        <path d="M150.836455,60.5712133 L150.160852,60.5712133 C149.942739,60.5712133 149.754397,60.58944 149.594609,60.626501 C149.434822,60.6629544 149.302375,60.7170269 149.197267,60.7887186 C149.091553,60.8610178 149.013785,60.9472909 148.964573,61.0481453 C148.914754,61.1483921 148.889844,61.265043 148.889844,61.3950602 C148.889844,61.6192486 148.960928,61.7978702 149.103096,61.92971 C149.245872,62.0627649 149.444543,62.1289886 149.700324,62.1289886 C149.908109,62.1289886 150.100704,62.0767387 150.277503,61.9710239 C150.45491,61.865309 150.64143,61.7036989 150.836455,61.4868012 L150.836455,60.5712133 Z M151.622026,62.540912 C151.622026,62.5797957 151.60866,62.6083508 151.58375,62.6277926 C151.557625,62.6466269 151.523602,62.6606007 151.478643,62.6703216 C151.433076,62.6806501 151.368067,62.684903 151.281794,62.684903 C151.199167,62.684903 151.132335,62.6806501 151.083123,62.6703216 C151.033304,62.6606007 150.998065,62.6466269 150.975586,62.6277926 C150.952499,62.6083508 150.94217,62.5797957 150.94217,62.540912 L150.94217,62.1095468 C150.75322,62.3112556 150.543613,62.4673977 150.311526,62.5797957 C150.07944,62.6909785 149.834594,62.7474813 149.575775,62.7474813 C149.348549,62.7474813 149.143195,62.717711 148.959713,62.658778 C148.775623,62.599845 148.619481,62.5141795 148.490071,62.4023891 C148.360662,62.2905987 148.259807,62.1532909 148.188116,61.9898581 C148.115817,61.8270329 148.079971,61.6417282 148.079971,61.4339438 C148.079971,61.1915287 148.12979,60.9800989 148.228822,60.8008697 C148.327246,60.6222481 148.469415,60.4733967 148.655327,60.3555307 C148.840632,60.2370571 149.06725,60.1483539 149.33579,60.0894209 C149.60433,60.0298803 149.906286,60.0007176 150.241657,60.0007176 L150.836455,60.0007176 L150.836455,59.6653463 C150.836455,59.4988758 150.818836,59.3518471 150.78299,59.2236526 C150.74836,59.0960657 150.691857,58.9897433 150.613482,58.9052929 C150.535107,58.820235 150.433645,58.7570491 150.309096,58.713305 C150.184547,58.6701685 150.030835,58.648904 149.848568,58.648904 C149.65415,58.648904 149.479174,58.6719911 149.324247,58.7181654 C149.168712,58.7643397 149.03262,58.8153745 148.916576,58.8718773 C148.799318,58.9277725 148.702109,58.9788073 148.623734,59.0249816 C148.545359,59.0711559 148.487641,59.094243 148.448758,59.094243 C148.42324,59.094243 148.400761,59.0881675 148.381926,59.0754088 C148.363092,59.0626501 148.345473,59.0432083 148.331499,59.0176909 C148.317525,58.9921735 148.306589,58.959973 148.300514,58.9192667 C148.293831,58.8797755 148.2914,58.8360314 148.2914,58.7874269 C148.2914,58.7084445 148.296261,58.6446511 148.307804,58.5984768 C148.31874,58.5523025 148.345473,58.5079508 148.389217,58.466637 C148.432354,58.4253231 148.506475,58.3767186 148.61219,58.3202158 C148.717905,58.2643206 148.838809,58.2132858 148.976117,58.1671115 C149.113425,58.1209372 149.264099,58.0820536 149.426924,58.0522833 C149.589749,58.0219055 149.754397,58.006109 149.920867,58.006109 C150.230721,58.006109 150.494401,58.0419549 150.711906,58.1118239 C150.928804,58.1816929 151.104388,58.2849775 151.238658,58.4210702 C151.372928,58.5571629 151.470137,58.7254561 151.532108,58.9265574 C151.592256,59.1282662 151.622026,59.3633906 151.622026,59.6313231 L151.622026,62.540912 Z" id="Fill-25" fill="#001E6B"></path>
                        <path d="M158.19421,59.5020351 C157.979742,59.2365328 157.77378,59.0342164 157.573894,58.8956935 C157.373401,58.756563 157.165616,58.686694 156.948111,58.686694 C156.746402,58.686694 156.575679,58.734691 156.434726,58.8312925 C156.29438,58.9266789 156.180159,59.0530507 156.092064,59.2098003 C156.004575,59.3659424 155.940174,59.5433489 155.900683,59.7420199 C155.860584,59.9400834 155.840535,60.1411847 155.840535,60.3459313 C155.840535,60.562829 155.856939,60.7754739 155.890962,60.9832582 C155.924985,61.1910426 155.982703,61.3757398 156.065939,61.5373499 C156.149174,61.6983524 156.259142,61.827762 156.396449,61.9249711 C156.534365,62.0221802 156.706911,62.0713922 156.914695,62.0713922 C157.019803,62.0713922 157.121265,62.0568109 157.219081,62.0282557 C157.31629,61.999093 157.416537,61.9517036 157.518607,61.8842648 C157.620676,61.8174336 157.727606,61.7305529 157.839397,61.6230154 C157.951795,61.5160854 158.069661,61.3848532 158.19421,61.2281036 L158.19421,59.5020351 Z M158.990109,62.5361731 C158.990109,62.5616905 158.984641,62.5841701 158.973097,62.6030043 C158.962161,62.6230537 158.942719,62.6376351 158.915379,62.6491786 C158.888647,62.6601147 158.852801,62.669228 158.807842,62.6759111 C158.76349,62.6813791 158.70881,62.6850245 158.645017,62.6850245 C158.578185,62.6850245 158.521683,62.6813791 158.477331,62.6759111 C158.432372,62.669228 158.395918,62.6601147 158.366756,62.6491786 C158.338201,62.6376351 158.317544,62.6230537 158.304785,62.6030043 C158.291419,62.5841701 158.285343,62.5616905 158.285343,62.5361731 L158.285343,61.9662849 C158.058117,62.2123454 157.822993,62.4037257 157.578147,62.5410336 C157.333909,62.6789489 157.066584,62.7476028 156.775565,62.7476028 C156.459028,62.7476028 156.188665,62.685632 155.965084,62.5629056 C155.741503,62.4395716 155.560451,62.2737086 155.421321,62.0641016 C155.282191,61.8551021 155.180729,61.6090416 155.116935,61.3259202 C155.052534,61.0434063 155.020941,60.745096 155.020941,60.4315968 C155.020941,60.0615948 155.06104,59.7262235 155.141237,59.4279131 C155.22022,59.1289953 155.339301,58.874429 155.495443,58.6629993 C155.651585,58.4521771 155.846611,58.2899595 156.07809,58.1763464 C156.309569,58.0633409 156.577501,58.0062305 156.880672,58.0062305 C157.133416,58.0062305 157.364287,58.0615182 157.573894,58.1720935 C157.782894,58.2820613 157.989463,58.4442789 158.19421,58.6581388 L158.19421,56.1507524 C158.19421,56.1288804 158.200285,56.1070084 158.211221,56.0863514 C158.222157,56.0656945 158.244029,56.0492905 158.27623,56.038962 C158.307823,56.0274184 158.348529,56.0183051 158.398349,56.0097993 C158.447561,56.0019011 158.510747,55.9976482 158.587299,55.9976482 C158.666889,55.9976482 158.733112,56.0019011 158.784147,56.0097993 C158.835182,56.0183051 158.875281,56.0274184 158.903836,56.038962 C158.932391,56.0492905 158.954263,56.0656945 158.968237,56.0863514 C158.982818,56.1070084 158.990109,56.1288804 158.990109,56.1507524 L158.990109,62.5361731 Z" id="Fill-27" fill="#001E6B"></path>
                        <path d="M163.337663,59.9577026 C163.347384,59.5415262 163.254428,59.2158759 163.060617,58.9795363 C162.866199,58.7431968 162.577002,58.6247232 162.194241,58.6247232 C161.998608,58.6247232 161.82667,58.6611766 161.679033,58.734691 C161.530182,58.8082053 161.406848,58.906022 161.307209,59.0275333 C161.207569,59.1490446 161.13041,59.2899978 161.075122,59.4516079 C161.021049,59.6132179 160.990672,59.7815111 160.983988,59.9577026 L163.337663,59.9577026 Z M164.133562,60.1922194 C164.133562,60.3167686 164.101969,60.4054718 164.039391,60.4583293 C163.976813,60.5111867 163.905728,60.5373116 163.825531,60.5373116 L160.983988,60.5373116 C160.983988,60.7772965 161.008291,60.9929791 161.056288,61.1849671 C161.104285,61.3763474 161.184482,61.5409953 161.297488,61.6783031 C161.409278,61.8162184 161.555092,61.9207182 161.734928,61.9948401 C161.915373,62.0683545 162.135308,62.1048079 162.395343,62.1048079 C162.600697,62.1048079 162.784179,62.0884038 162.944574,62.0543807 C163.104969,62.020965 163.244099,61.9832965 163.361358,61.9419827 C163.478009,61.9000613 163.57461,61.8630003 163.650555,61.8295847 C163.725892,61.7955615 163.782394,61.7791575 163.821278,61.7791575 C163.843758,61.7791575 163.863807,61.7846255 163.881426,61.7955615 C163.899045,61.8071051 163.912412,61.8235091 163.922132,61.8459887 C163.932461,61.8690759 163.939144,61.8994537 163.944005,61.9395524 C163.948865,61.9796512 163.951295,62.0282557 163.951295,62.0859736 C163.951295,62.1272875 163.949473,62.1631333 163.946435,62.1941187 C163.943397,62.223889 163.939144,62.251229 163.934284,62.2749237 C163.930031,62.299226 163.921525,62.321098 163.909981,62.3399323 C163.899653,62.3587665 163.884464,62.3769932 163.867452,62.3952199 C163.849833,62.4128391 163.798191,62.4413943 163.71131,62.4808854 C163.625645,62.5215917 163.513247,62.5604754 163.375939,62.5987514 C163.238631,62.6370275 163.079451,62.6716582 162.899007,62.7020361 C162.717955,62.7318063 162.525967,62.7476028 162.321221,62.7476028 C161.966408,62.7476028 161.655339,62.6977832 161.389229,62.5987514 C161.122511,62.4997197 160.897715,62.352691 160.716056,62.1576653 C160.533789,61.9632472 160.395874,61.7177943 160.303525,61.4243444 C160.210569,61.130287 160.163787,60.7882325 160.163787,60.3987887 C160.163787,60.0275716 160.211784,59.6946305 160.308385,59.3987504 C160.403772,59.1034779 160.541687,58.852557 160.722739,58.6465953 C160.903183,58.440026 161.121904,58.2820613 161.37647,58.1720935 C161.632251,58.0615182 161.918411,58.0062305 162.235555,58.0062305 C162.573964,58.0062305 162.862554,58.0609106 163.100108,58.1696633 C163.338271,58.2778084 163.533904,58.4242295 163.687616,58.6077116 C163.84072,58.7918013 163.953725,59.0080915 164.025417,59.2553671 C164.097716,59.5026426 164.133562,59.7675373 164.133562,60.0482285 L164.133562,60.1922194 Z" id="Fill-29" fill="#001E6B"></path>
                        <path d="M166.127442,62.5362339 C166.127442,62.5617512 166.120759,62.5836233 166.108607,62.6006349 C166.095241,62.6188616 166.074584,62.6340505 166.046029,62.6468092 C166.016866,62.6595679 165.977375,62.6692888 165.92634,62.6753643 C165.875306,62.6814399 165.80969,62.6850852 165.7301,62.6850852 C165.65294,62.6850852 165.589146,62.6814399 165.537504,62.6753643 C165.486469,62.6692888 165.446371,62.6595679 165.415385,62.6468092 C165.385007,62.6340505 165.364351,62.6188616 165.353415,62.6006349 C165.342478,62.5836233 165.336403,62.5617512 165.336403,62.5362339 L165.336403,56.1319789 C165.336403,56.1064616 165.342478,56.083982 165.353415,56.0651477 C165.364351,56.0457059 165.385007,56.0299094 165.415385,56.0171507 C165.446371,56.004392 165.486469,55.9946711 165.537504,55.9885956 C165.589146,55.9819124 165.65294,55.9788747 165.7301,55.9788747 C165.80969,55.9788747 165.875306,55.9819124 165.92634,55.9885956 C165.977375,55.9946711 166.016866,56.004392 166.046029,56.0171507 C166.074584,56.0299094 166.095241,56.0457059 166.108607,56.0651477 C166.120759,56.083982 166.127442,56.1064616 166.127442,56.1319789 L166.127442,62.5362339 Z" id="Fill-31" fill="#001E6B"></path>
                        <path d="M172.843191,58.3373489 C172.843191,58.0846053 172.796409,57.8737832 172.702238,57.7042749 C172.607459,57.5353741 172.491416,57.4090023 172.351678,57.3257671 C172.213155,57.2425318 172.069771,57.1896744 171.920312,57.1671948 C171.772069,57.1453227 171.62747,57.1343867 171.487124,57.1343867 L170.724641,57.1343867 L170.724641,59.6217237 L171.467683,59.6217237 C171.716781,59.6217237 171.92335,59.5901308 172.088606,59.5257298 C172.252646,59.4625439 172.391169,59.373233 172.502959,59.2602275 C172.61475,59.1466144 172.699808,59.0105217 172.756918,58.852557 C172.814636,58.6945922 172.843191,58.5226537 172.843191,58.3373489 M173.711389,58.2705177 C173.711389,58.579764 173.660355,58.8592401 173.557678,59.1089459 C173.455608,59.3586517 173.309187,59.570689 173.119022,59.7462728 C172.929464,59.9218567 172.695555,60.0579494 172.419116,60.1539434 C172.142678,60.2493298 171.812775,60.2979343 171.429407,60.2979343 L170.724641,60.2979343 L170.724641,62.5313126 C170.724641,62.55683 170.71735,62.5793096 170.703376,62.5987514 C170.688795,62.6181932 170.666315,62.6327746 170.635938,62.6443182 C170.60556,62.6552542 170.564246,62.6649751 170.511388,62.6734809 C170.458531,62.6807716 170.392307,62.6850245 170.312717,62.6850245 C170.23252,62.6850245 170.166296,62.6807716 170.113439,62.6734809 C170.060581,62.6649751 170.01866,62.6552542 169.986459,62.6443182 C169.954259,62.6327746 169.931779,62.6181932 169.919628,62.5987514 C169.906262,62.5793096 169.900186,62.55683 169.900186,62.5313126 L169.900186,56.8075212 C169.900186,56.6799343 169.933602,56.5888008 170.000433,56.5347283 C170.067872,56.4800482 170.143209,56.4527081 170.225837,56.4527081 L171.553956,56.4527081 C171.688226,56.4527081 171.817028,56.4587837 171.939754,56.4703273 C172.063088,56.4812633 172.208294,56.504958 172.37598,56.5420189 C172.543665,56.5784723 172.714996,56.6477338 172.888758,56.7479807 C173.063126,56.8488351 173.210763,56.9727766 173.332882,57.1191978 C173.453785,57.2662265 173.547349,57.4369499 173.612965,57.6301529 C173.678581,57.823356 173.711389,58.0366084 173.711389,58.2705177" id="Fill-33" fill="#001E6B"></path>
                        <path d="M177.570164,59.9577026 C177.579885,59.5415262 177.486929,59.2158759 177.293118,58.9795363 C177.0987,58.7431968 176.809503,58.6247232 176.426742,58.6247232 C176.231109,58.6247232 176.059171,58.6611766 175.911534,58.734691 C175.762683,58.8082053 175.639349,58.906022 175.53971,59.0275333 C175.44007,59.1490446 175.362911,59.2899978 175.307623,59.4516079 C175.253551,59.6132179 175.223173,59.7815111 175.21649,59.9577026 L177.570164,59.9577026 Z M178.366063,60.1922194 C178.366063,60.3167686 178.33447,60.4054718 178.271892,60.4583293 C178.209314,60.5111867 178.13823,60.5373116 178.058032,60.5373116 L175.21649,60.5373116 C175.21649,60.7772965 175.240792,60.9929791 175.288789,61.1849671 C175.336786,61.3763474 175.416983,61.5409953 175.529989,61.6783031 C175.641779,61.8162184 175.787593,61.9207182 175.96743,61.9948401 C176.147874,62.0683545 176.367809,62.1048079 176.627844,62.1048079 C176.833198,62.1048079 177.01668,62.0884038 177.177075,62.0543807 C177.33747,62.020965 177.4766,61.9832965 177.593859,61.9419827 C177.71051,61.9000613 177.807111,61.8630003 177.883056,61.8295847 C177.958393,61.7955615 178.014896,61.7791575 178.053779,61.7791575 C178.076259,61.7791575 178.096308,61.7846255 178.113927,61.7955615 C178.131546,61.8071051 178.144913,61.8235091 178.154634,61.8459887 C178.164962,61.8690759 178.171645,61.8994537 178.176506,61.9395524 C178.181366,61.9796512 178.183796,62.0282557 178.183796,62.0859736 C178.183796,62.1272875 178.181974,62.1631333 178.178936,62.1941187 C178.175898,62.223889 178.171645,62.251229 178.166785,62.2749237 C178.162532,62.299226 178.154026,62.321098 178.142483,62.3399323 C178.132154,62.3587665 178.116965,62.3769932 178.099954,62.3952199 C178.082334,62.4128391 178.030692,62.4413943 177.943811,62.4808854 C177.858146,62.5215917 177.745748,62.5604754 177.60844,62.5987514 C177.471132,62.6370275 177.311953,62.6716582 177.131508,62.7020361 C176.950456,62.7318063 176.758468,62.7476028 176.553722,62.7476028 C176.198909,62.7476028 175.88784,62.6977832 175.62173,62.5987514 C175.355012,62.4997197 175.130217,62.352691 174.948557,62.1576653 C174.76629,61.9632472 174.628375,61.7177943 174.536026,61.4243444 C174.44307,61.130287 174.396288,60.7882325 174.396288,60.3987887 C174.396288,60.0275716 174.444285,59.6946305 174.540887,59.3987504 C174.636273,59.1034779 174.774188,58.852557 174.95524,58.6465953 C175.135685,58.440026 175.354405,58.2820613 175.608971,58.1720935 C175.864753,58.0615182 176.150912,58.0062305 176.468056,58.0062305 C176.806465,58.0062305 177.095055,58.0609106 177.332609,58.1696633 C177.570772,58.2778084 177.766405,58.4242295 177.920117,58.6077116 C178.073221,58.7918013 178.186227,59.0080915 178.257918,59.2553671 C178.330218,59.5026426 178.366063,59.7675373 178.366063,60.0482285 L178.366063,60.1922194 Z" id="Fill-35" fill="#001E6B"></path>
                        <path d="M182.090629,58.50467 C182.090629,58.5751466 182.088806,58.6346872 182.085768,58.6820766 C182.082123,58.7300736 182.076655,58.7683496 182.066934,58.7950821 C182.056606,58.8218146 182.045062,58.8430791 182.030481,58.8570529 C182.016507,58.8716343 181.996458,58.8789249 181.97094,58.8789249 C181.945423,58.8789249 181.91383,58.8716343 181.876769,58.8570529 C181.840315,58.8430791 181.799002,58.8284977 181.75222,58.8145239 C181.706045,58.799335 181.654403,58.7859688 181.597293,58.7732101 C181.539575,58.7604514 181.476997,58.7543758 181.410165,58.7543758 C181.329968,58.7543758 181.251593,58.7701723 181.175041,58.8017652 C181.098489,58.8339657 181.017076,58.8868232 180.933233,58.9603375 C180.848175,59.0338519 180.76008,59.131061 180.666516,59.2525723 C180.574167,59.3746912 180.472098,59.522935 180.3597,59.6985189 L180.3597,62.5364161 C180.3597,62.5619335 180.353624,62.5838055 180.340866,62.6008171 C180.328107,62.6184363 180.306842,62.6342327 180.278895,62.6463839 C180.249732,62.6597501 180.209633,62.6688635 180.158599,62.6755466 C180.107564,62.6816222 180.041948,62.6852675 179.962358,62.6852675 C179.885198,62.6852675 179.822012,62.6816222 179.77037,62.6755466 C179.719335,62.6688635 179.678629,62.6597501 179.647643,62.6463839 C179.617873,62.6342327 179.597216,62.6184363 179.585673,62.6008171 C179.574737,62.5838055 179.569269,62.5619335 179.569269,62.5364161 L179.569269,58.2221562 C179.569269,58.1966388 179.573522,58.1747668 179.583242,58.1577552 C179.593571,58.1395285 179.612405,58.123732 179.64096,58.1097582 C179.670123,58.0951768 179.706576,58.0854559 179.750928,58.0805955 C179.796495,58.075735 179.85482,58.0733048 179.928335,58.0733048 C179.999419,58.0733048 180.057137,58.075735 180.103311,58.0805955 C180.150093,58.0854559 180.185939,58.0951768 180.211456,58.1097582 C180.236973,58.123732 180.2552,58.1395285 180.266744,58.1577552 C180.278287,58.1747668 180.283148,58.1966388 180.283148,58.2221562 L180.283148,58.8497622 C180.401621,58.6772161 180.512197,58.5368705 180.616696,58.4281179 C180.719981,58.3193652 180.818405,58.2343073 180.911361,58.171729 C181.004317,58.1097582 181.095451,58.0660141 181.187192,58.0423194 C181.277718,58.0180171 181.369459,58.0064736 181.463023,58.0064736 C181.503729,58.0064736 181.551118,58.0089038 181.603976,58.0131567 C181.656833,58.0180171 181.712121,58.0271305 181.769839,58.0398892 C181.826949,58.0526479 181.878592,58.0672292 181.925373,58.0830257 C181.971548,58.0988222 182.004356,58.1146186 182.023798,58.1310227 C182.042632,58.1468191 182.055391,58.1626156 182.061466,58.1765894 C182.068149,58.1905632 182.074225,58.2093975 182.078478,58.2318771 C182.083338,58.2543567 182.086376,58.2871647 182.088199,58.3303013 C182.090021,58.3728302 182.090629,58.4317632 182.090629,58.50467" id="Fill-37" fill="#001E6B"></path>
                        <path d="M185.230482,56.1130232 C185.249924,56.0777849 185.271796,56.0492297 185.297313,56.0261426 C185.32283,56.0042705 185.354423,55.9866514 185.391484,55.9738927 C185.427938,55.961134 185.473504,55.9514131 185.527577,55.9453375 C185.582257,55.9386544 185.647873,55.9356166 185.723818,55.9356166 C185.813736,55.9356166 185.886643,55.9410846 185.942538,55.9520207 C185.998433,55.9635642 186.037317,55.9793607 186.059797,56.0000176 C186.082276,56.0212821 186.091997,56.0449768 186.088352,56.0723169 C186.085314,56.0996569 186.07134,56.126997 186.045823,56.1555521 L185.177624,57.2728489 C185.152107,57.3050494 185.12902,57.3305668 185.108363,57.349401 C185.087706,57.3688428 185.064011,57.3840317 185.036671,57.3949678 C185.009331,57.4065113 184.974093,57.4144096 184.930956,57.4186625 C184.888427,57.4241305 184.834355,57.4265607 184.770561,57.4265607 C184.700085,57.4265607 184.64419,57.4210927 184.602876,57.4119793 C184.560954,57.4022584 184.531792,57.3901073 184.513565,57.3737033 C184.496553,57.3579068 184.48987,57.3372499 184.494731,57.3117325 C184.499591,57.2862151 184.512957,57.2552297 184.535437,57.2199914 L185.230482,56.1130232 Z M186.687403,62.5361123 C186.687403,62.5616297 186.682542,62.5835018 186.670999,62.6011209 C186.660063,62.6187401 186.640013,62.633929 186.61085,62.6466877 C186.582903,62.6594463 186.544627,62.6691673 186.498452,62.6758504 C186.452278,62.6819259 186.395775,62.6849637 186.328337,62.6849637 C186.254822,62.6849637 186.195282,62.6819259 186.1485,62.6758504 C186.102326,62.6691673 186.065265,62.6594463 186.038532,62.6466877 C186.011192,62.633929 185.992965,62.6187401 185.983244,62.6011209 C185.974131,62.5835018 185.969271,62.5616297 185.969271,62.5361123 L185.969271,61.9662242 C185.72321,62.237802 185.47958,62.4358655 185.240203,62.5604146 C185.000218,62.6849637 184.757803,62.7475421 184.511135,62.7475421 C184.224368,62.7475421 183.981953,62.6995451 183.785104,62.6035511 C183.588864,62.5075572 183.429684,62.3775401 183.308172,62.2128922 C183.187269,62.0488519 183.09978,61.8562564 183.046923,61.637536 C182.994066,61.4182081 182.967941,61.1527058 182.967941,60.8392065 L182.967941,58.2224599 C182.967941,58.1969426 182.973409,58.1750705 182.984952,58.1574514 C182.995888,58.1398322 183.017153,58.1240358 183.049353,58.1094544 C183.081554,58.0954806 183.122868,58.0851521 183.173902,58.0802917 C183.224937,58.0754312 183.289338,58.0736086 183.36589,58.0736086 C183.44305,58.0736086 183.506236,58.0754312 183.557878,58.0802917 C183.608913,58.0851521 183.649012,58.0954806 183.679997,58.1094544 C183.710375,58.1240358 183.731639,58.1398322 183.745006,58.1574514 C183.757157,58.1750705 183.76384,58.1969426 183.76384,58.2224599 L183.76384,60.7334917 C183.76384,60.9862353 183.782067,61.1885516 183.819128,61.3404408 C183.855581,61.49233 183.911476,61.621132 183.986813,61.7286695 C184.061543,61.8355995 184.156322,61.9188348 184.271757,61.9777678 C184.386585,62.0373083 184.521463,62.066471 184.674567,62.066471 C184.872631,62.066471 185.070087,61.996602 185.266935,61.8556489 C185.463176,61.7153033 185.672175,61.5093416 185.892111,61.2377637 L185.892111,58.2224599 C185.892111,58.1969426 185.898186,58.1750705 185.909123,58.1574514 C185.920059,58.1398322 185.941931,58.1240358 185.974131,58.1094544 C186.005116,58.0954806 186.04643,58.0851521 186.09625,58.0802917 C186.145462,58.0754312 186.209863,58.0736086 186.290061,58.0736086 C186.366613,58.0736086 186.431014,58.0754312 186.482048,58.0802917 C186.533083,58.0851521 186.573182,58.0954806 186.601737,58.1094544 C186.630292,58.1240358 186.652164,58.1398322 186.666138,58.1574514 C186.680719,58.1750705 186.687403,58.1969426 186.687403,58.2224599 L186.687403,62.5361123 Z" id="Fill-39" fill="#001E6B"></path>
                        <g id="Group-43" transform="translate(0.000000, 27.947607)">
                            <mask id="mask-6" fill="white">
                                <use xlink:href="#path-5"></use>
                            </mask>
                            <g id="Clip-42"></g>
                            <polygon id="Fill-41" fill="#B2B4B5" mask="url(#mask-6)" points="25.7068165 23.8134269 2.33775657 0.446797179 -0.000121511335 2.78467526 25.7068165 28.4885755 51.4113243 2.78406771 49.0734462 0.446797179"></polygon>
                        </g>
                        <g id="Group-46">
                            <mask id="mask-8" fill="white">
                                <use xlink:href="#path-7"></use>
                            </mask>
                            <g id="Clip-45"></g>
                            <path d="M25.7043863,47.0898345 L16.3565193,37.7419675 L23.4303017,30.6694002 L32.7155903,21.3828964 C32.7204508,21.3883644 32.7259188,21.3932249 32.7307792,21.3980853 C37.8694936,26.5367997 37.884075,34.8578959 32.7769536,40.0160521 L32.7775611,40.0166596 L25.7043863,47.0898345 Z M18.6324266,12.0982153 L25.7049939,5.02564806 L35.0534684,14.3722999 L27.979686,21.4454748 L18.6937898,30.731371 C18.6889294,30.7265105 18.6840689,30.7216501 18.6792085,30.7167896 C13.5404941,25.5780753 13.5259127,17.2563715 18.6330342,12.0988229 L18.6324266,12.0982153 Z M25.7043863,0.351714559 L-0.000121511335,26.0568299 L25.7068165,51.7607302 L51.4113243,26.0568299 L25.7043863,0.351714559 Z" id="Fill-44" fill="#001E6B" mask="url(#mask-8)"></path>
                        </g>
                    </g>
                </g>
            </g>
        </g>
    </g>
</svg>